HIERARCHY
ROOT simHips
{
  OFFSET -2.06402 30.543 -2.21415
  CHANNELS 6 Xposition Yposition Zposition Zrotation Xrotation Yrotation
  JOINT simSpine
  {
    OFFSET -0.000355721 21.3001 -0.016921
    CHANNELS 3 Zrotation Xrotation Yrotation
    JOINT simLeftArm
    {
      OFFSET 13.5181 21.3012 0
      CHANNELS 3 Zrotation Xrotation Yrotation
      JOINT simLeftForeArm
      {
        OFFSET 24.5783 0 0
        CHANNELS 3 Zrotation Xrotation Yrotation
        JOINT simLeftHand
        {
          OFFSET 24.5783 0 0
          CHANNELS 3 Zrotation Xrotation Yrotation
          End Site
          {
            OFFSET 7.32568 1.52588e-05 0.0169305
          }
        }
      }
    }
    JOINT simHead
    {
      OFFSET 0 27.4458 -0.00489235
      CHANNELS 3 Zrotation Xrotation Yrotation
      End Site
      {
        OFFSET 0 0 0
      }
    }
    JOINT simRightArm
    {
      OFFSET -13.5174 21.3012 0
      CHANNELS 3 Zrotation Xrotation Yrotation
      JOINT simRightForeArm
      {
        OFFSET -24.5783 0 0
        CHANNELS 3 Zrotation Xrotation Yrotation
        JOINT simRightHand
        {
          OFFSET -24.5783 0 0
          CHANNELS 3 Zrotation Xrotation Yrotation
          End Site
          {
            OFFSET -7.32568 1.52588e-05 0.0169305
          }
        }
      }
    }
  }
  JOINT simRightUpLeg
  {
    OFFSET -8.44614 -9.41038 0.835684
    CHANNELS 3 Zrotation Xrotation Yrotation
    JOINT simRightLeg
    {
      OFFSET 0 -40.9639 0
      CHANNELS 3 Zrotation Xrotation Yrotation
      JOINT simRightFoot
      {
        OFFSET 0 -40.9639 0
        CHANNELS 3 Zrotation Xrotation Yrotation
        End Site
        {
          OFFSET 0.50614 -9.67405 14.6709
        }
      }
    }
  }
  JOINT simLeftUpLeg
  {
    OFFSET 8.44614 -9.41038 0.835684
    CHANNELS 3 Zrotation Xrotation Yrotation
    JOINT simLeftLeg
    {
      OFFSET 0 -40.9639 0
      CHANNELS 3 Zrotation Xrotation Yrotation
      JOINT simLeftFoot
      {
        OFFSET 0 -40.9639 0
        CHANNELS 3 Zrotation Xrotation Yrotation
        End Site
        {
          OFFSET -0.50614 -9.67405 14.6709
        }
      }
    }
  }
}
MOTION
Frames:	21
Frame Time:	0.0333333
-2.06402 30.543 -2.21415 51.0168 -45.5397 28.0762 10.2226 60.8225 -29.7812 -8.05296 15.2207 -37.7379 0.00211855 -8.25353e-06 -122.745 -21.2244 -13.3974 -16.0566 -11.7645 16.6454 -1.87868 84.8145 -27.7568 -5.27747 -0.000156399 -5.33099e-06 39.4213 -45.1107 18.297 2.33718 10.8419 -39.5124 -19.3451 88.8225 84.5414 -98.867 5.716 14.9717 -19.1477 7.98404 -45.5912 71.521 169.771 35.7021 -159.627 14.8189 -18.7144 15.9848 
-1.48671 33.6411 -5.76941 53.4049 -37.1702 24.867 7.1107 60.9033 -23.0081 -12.6699 10.6475 -46.6786 -0.0400563 -7.52765e-06 -119.56 -15.9537 -10.1855 -12.6224 -17.3165 8.56431 -10.7283 81.9658 -26.2259 -5.94025 -0.00015597 -4.94722e-06 44.202 -46.1581 10.4848 -2.34639 4.01222 -43.8006 -18.3019 50.2997 83.5248 -57.844 -2.17363 12.0264 -20.7347 15.7953 -49.0978 73.9734 171.786 42.5327 -173.694 -9.46569 -11.2149 5.08757 
-1.45279 36.555 -8.8182 53.9764 -29.6741 21.8717 7.20431 59.933 -20.1197 -19.5901 6.23112 -56.6478 4.4104e-05 -6.94542e-06 -117.076 -10.6442 -6.69166 -9.72409 -20.9838 2.14972 -17.4272 79.3893 -25.2583 -4.79718 -0.00015577 -4.74468e-06 46.5645 -47.8435 4.78738 -5.25576 0.666653 -47.5684 -17.4445 22.1144 78.1025 -28.2692 -10.8731 9.38832 -22.8991 22.0445 -47.5742 66.7078 175.051 41.8472 -173.523 -15.526 -14.6448 0.0128295 
-1.88434 40.3057 -11.7531 54.7077 -22.7359 19.8984 8.78547 58.004 -21.0673 -29.1437 3.97025 -68.2779 2.92983e-05 -5.97678e-06 -113.06 -6.14926 -3.96834 -6.68496 -23.4098 -1.73686 -20.4818 77.4702 -24.4093 -0.294131 -0.000155915 -4.89288e-06 44.8454 -49.5169 0.973678 -5.88967 -2.69575 -49.8645 -16.7919 11.8944 70.6649 -16.9157 -16.0582 7.98503 -25.1985 23.6604 -41.1792 47.9309 178.222 46.2479 177.986 -16.331 -16.0496 -3.05187 
-2.82903 44.5641 -14.0676 55.5343 -16.4773 18.1781 10.9461 55.5418 -24.1264 -39.9559 5.32118 -74.6846 1.89366e-05 -4.63975e-06 -107.702 -2.60353 -2.24517 -3.48446 -25.3929 -3.89471 -20.6437 76.1735 -23.6462 7.19993 -0.000156365 -5.30279e-06 39.7886 -50.6634 -1.50847 -4.65566 -6.72188 -51.5198 -17.3315 8.28019 65.3588 -12.0274 -16.4619 7.12482 -26.6871 18.8598 -33.9673 29.8016 -178.201 58.2374 170.785 -11.1961 -15.71 -4.56771 
-3.9538 48.9151 -15.9753 55.5508 -10.9065 15.7453 13.3424 53.1574 -27.0556 -50.1322 9.609 -73.8722 6.17619e-07 -2.30097e-06 -98.6731 -0.501328 -2.46731 -0.418483 -27.1078 -6.11441 -20.0601 75.1049 -22.6316 15.9382 -0.000156928 -5.725e-06 33.9431 -51.3298 -3.26361 -3.04391 -10.6032 -53.0814 -19.2465 6.57123 60.8461 -7.12701 -12.7751 9.33225 -26.5216 12.7809 -26.0439 16.2243 -174.095 73.6152 168.904 -15.9244 -13.9714 -9.76502 
-5.1771 52.9988 -17.6031 54.226 -5.8356 12.0401 15.2789 51.4312 -28.3976 -59.7165 13.6162 -67.6031 -2.54202e-05 8.02191e-07 -86.9864 0.916424 -4.37659 2.6128 -28.0425 -9.39112 -19.7968 73.979 -20.6289 24.5943 -0.000157418 -6.02634e-06 29.1606 -51.7415 -4.6751 -2.3353 -12.3139 -54.8898 -21.319 5.62765 56.6483 -1.99679 -6.1449 14.2059 -25.5607 7.67557 -18.3998 7.79151 -8.59705 88.8283 -0.0913746 -19.3058 -10.7238 -16.5994 
-6.10809 56.2061 -18.9985 51.6427 -1.2733 7.19123 16.2134 50.7385 -28.1884 -68.2464 13.3933 -61.1095 -5.86909e-05 3.72138e-06 -75.8841 3.18631 -8.51686 5.70312 -28.1025 -13.292 -19.3544 73.0246 -17.3688 33.0199 -0.000157828 -6.23716e-06 25.3369 -51.8896 -5.81843 -2.39439 -10.6432 -58.7774 -21.829 5.60042 59.6329 0.0769241 -1.16862 16.0426 -23.1175 3.60709 -12.5282 3.16274 9.83007 71.8682 -15.9261 -23.9002 -2.41875 -20.005 
-6.34856 58.2136 -20.2668 48.5621 2.73217 1.93826 15.922 50.9772 -27.2561 -72.7154 9.15224 -59.4463 -9.855e-05 6.6665e-06 -64.094 7.30409 -16.7957 6.20977 -27.6084 -16.9124 -18.3367 72.519 -13.2807 41.5452 -0.000158284 -6.43322e-06 21.2169 -51.6432 -6.91944 -2.32311 -5.44821 -63.9591 -18.8566 7.79764 73.823 -4.47781 -0.922984 9.56612 -17.6283 0.75063 -8.48 1.23343 11.9315 56.9343 -18.8508 -23.3454 0.980134 -18.3796 
-5.86901 59.1692 -21.9048 46.1502 6.49125 -3.26257 13.8376 51.7101 -25.6945 -72.2994 6.17244 -59.8774 -0.000144232 9.29444e-06 -52.4741 10.5535 -27.229 8.42016 -26.5093 -20.0102 -17.1346 72.1741 -9.04058 49.9905 -0.000158845 -6.62376e-06 16.2953 -50.9825 -8.54429 -1.89507 2.70062 -60.9095 -10.6555 172.78 81.4817 -174.839 -2.81971 -11.9035 -13.0971 -1.44351 -7.46266 2.18024 13.1992 47.2868 -17.8982 -25.6112 -1.52028 -12.7667 
-5.8901 60.1142 -23.7292 43.2798 10.5649 -7.628 12.0256 52.4348 -23.9813 -69.6437 4.45153 -59.3725 -0.000194596 1.11829e-05 -42.8713 18.0707 -38.6183 14.7509 -24.7146 -22.7924 -16.0471 71.5281 -5.09716 57.8018 -0.000159397 -6.76087e-06 11.5655 -50.084 -10.8446 -1.68111 3.82069 -55.2258 -7.30714 -179.207 69.5753 174.967 -4.1727 -21.1516 -13.4039 -0.131726 -9.7415 3.82804 14.5073 45.4082 -12.1203 -31.1463 -10.9637 -7.44686 
-6.56765 60.9975 -25.4617 40.2139 15.1853 -10.8503 10.6931 52.9744 -22.4904 -67.7772 4.5968 -58.3446 -0.000247792 1.17514e-05 -39.6334 27.6113 -44.4181 22.8924 -22.5678 -25.0827 -14.9946 70.3882 -1.43996 64.2753 -0.000159717 -6.81842e-06 8.87161 -49.352 -13.2642 -2.47781 -2.94221 -51.8898 -7.55176 -176.706 59.6569 171.164 -6.72815 -21.4683 -17.4413 3.14685 -14.3492 4.05633 14.046 45.3984 -8.97737 -32.493 -14.4587 -3.40515 
-7.92819 61.9093 -26.9884 37.0253 20.1847 -12.9987 9.63703 53.2966 -21.2073 -66.8895 4.56363 -55.8772 -0.000302154 1.04323e-05 -46.8673 37.7973 -33.9771 25.2828 -20.3395 -26.3738 -13.957 68.6283 2.1456 68.7679 -0.000159627 -6.80379e-06 9.62772 -49.3024 -15.2966 -4.91915 -12.1171 -48.0163 -6.61193 -174.606 55.5357 169.426 -7.91194 -19.3216 -20.0346 7.26122 -18.9603 2.68558 13.8843 44.2968 -5.3283 -32.614 -12.7162 -1.26149 
-9.59963 62.8239 -28.088 33.9983 25.2766 -14.2935 8.3373 53.4505 -20.0124 -66.2242 4.4298 -52.992 -0.000358809 8.33664e-06 -56.883 46.3674 -20.1685 26.531 -17.8973 -26.6087 -13.0613 66.1225 5.65915 71.401 -0.000159146 -6.70441e-06 13.7083 -50.2616 -16.9857 -9.0858 -18.611 -43.5495 -4.57581 -171.032 59.8449 167.291 -7.86907 -19.7367 -19.4786 12.0624 -22.4366 3.06286 14.0765 41.3334 -1.84608 -31.7355 -9.25063 -0.284785 
-11.399 63.6336 -28.7549 30.9355 30.1825 -14.9827 6.40099 53.6876 -18.3906 -65.7866 4.14098 -50.7503 -0.000417986 6.61376e-06 -64.314 51.39 -10.3744 27.772 -15.024 -26.4187 -12.2877 63.0027 8.82943 72.9607 -0.000158441 -6.49204e-06 19.8235 -52.2716 -18.5643 -14.5202 -22.5239 -39.5712 -2.7371 -162.626 69.4121 157.84 -6.97347 -21.638 -16.7896 18.5192 -24.6941 7.28648 13.8666 37.1797 -3.86129 -27.7003 -4.9181 0.588191 
-12.9366 64.1783 -29.1663 26.9171 34.565 -15.2766 3.44721 54.1472 -15.1417 -66.2953 3.56066 -50.248 -0.000479257 6.52379e-06 -64.6883 52.3979 -9.03767 28.113 -11.8478 -26.3847 -11.3579 59.6801 11.4463 73.9116 -0.000157663 -6.15616e-06 26.8656 -55.1161 -19.8583 -20.665 -24.258 -35.6922 -2.16905 -130.943 79.9329 123.743 -6.0146 -24.4458 -13.3881 26.6518 -26.8855 11.2319 12.9134 37.393 -11.2229 -16.6763 -1.60137 0.878661 
-13.7309 64.1952 -29.6731 21.2293 37.9404 -15.55 -0.790116 54.4156 -9.25962 -67.9834 2.7059 -51.9234 -0.000541407 7.22781e-06 -61.7264 54.8496 -9.74657 30.3411 -9.05444 -26.3434 -10.0632 56.5614 13.5786 74.2779 -0.000156917 -5.71785e-06 34.0493 -58.1401 -20.3505 -26.8833 -24.1033 -31.7899 -2.53918 -51.5911 78.5428 43.5339 -5.0459 -27.7946 -10.0229 31.1589 -31.4187 7.95602 17.0114 51.979 -20.8228 -15.0385 -4.90559 -0.0681628 
-13.5061 63.5853 -30.6312 13.7861 39.9277 -16.0355 -5.42933 53.97 -1.25657 -70.0975 1.26078 -55.6481 -0.000603908 8.71038e-06 -55.1909 56.8788 -10.9244 30.8602 -7.38186 -25.9008 -8.57294 53.8779 15.3685 74.1259 -0.000156301 -5.24888e-06 40.483 -60.3854 -19.9382 -32.4842 -22.4447 -28.1031 -3.23967 -27.6515 68.3 21.7897 -3.00619 -30.5279 -6.1684 28.0874 -35.5561 -1.60593 36.8783 73.146 -45.3741 -10.751 -7.0694 -0.268554 
-12.6381 62.533 -32.0211 5.4687 40.4031 -16.6745 -9.29847 53.0476 7.25198 -71.5104 -0.717226 -58.892 -0.000665599 9.98181e-06 -49.1434 57.8118 -10.689 28.2235 -6.7584 -25.4074 -7.22658 51.7929 16.7138 73.6114 -0.000155863 -4.84112e-06 45.4516 -61.3773 -19.2468 -37.1667 -18.8522 -26.1964 -4.1478 -22.4627 62.1367 22.3381 2.88227 -33.7241 0.444922 20.4123 -41.0924 -7.80503 148.03 74.6617 -150.78 -12.9547 -9.78062 -0.369313 
-11.8664 61.3869 -33.4947 -3.29053 39.6197 -16.7143 -11.7247 52.3612 15.1892 -71.6499 -2.19873 -60.3604 -0.000725353 1.066e-05 -45.6842 57.7147 -9.38616 27.7484 -6.43688 -25.4648 -6.30729 50.4879 17.4731 72.8532 -0.000155599 -4.55796e-06 48.6635 -61.4099 -19.0897 -40.9953 -13.9295 -24.3162 -4.99444 -21.0693 59.5814 24.69 14.2385 -37.7019 11.3445 13.9751 -48.8647 -4.58458 171.946 54.8941 -174.884 -12.4976 -13.106 -0.634261 
-12.1197 60.4211 -34.5793 -11.3656 37.6017 -16.3798 -13.9596 52.2141 22.423 -70.8322 -2.75214 -62.1816 -0.000783173 1.15491e-05 -40.8102 58.1547 -9.02876 27.0655 -5.74376 -25.7761 -5.85878 49.8693 17.9726 72.3488 -0.000155529 -4.47642e-06 49.5591 -61.1324 -20.3454 -44.0339 -8.40443 -20.9555 -5.18055 -20.5712 58.4585 22.2944 23.7634 -38.8158 21.3661 7.96679 -58.9363 5.32838 177.29 47.6943 176.647 -11.7542 -12.4001 -2.34583 
